<svg width="431" height="398" viewBox="0 0 431 398" fill="none" xmlns="http://www.w3.org/2000/svg">
<path d="M48.8197 248.959C49.0797 246.369 50.8197 243.799 53.9897 243.799C57.1597 243.799 58.8997 246.369 59.1597 248.959C59.5597 252.959 56.8597 256.569 53.9897 259.869C51.1197 256.589 48.4197 252.949 48.8197 248.959ZM53.9897 251.829C54.5494 251.829 55.0966 251.663 55.562 251.352C56.0274 251.041 56.3901 250.599 56.6043 250.082C56.8185 249.565 56.8745 248.996 56.7653 248.447C56.6561 247.898 56.3866 247.393 55.9908 246.998C55.595 246.602 55.0908 246.332 54.5418 246.223C53.9928 246.114 53.4238 246.17 52.9067 246.384C52.3896 246.598 51.9476 246.961 51.6366 247.427C51.3257 247.892 51.1597 248.439 51.1597 248.999C51.1623 249.749 51.4613 250.467 51.9915 250.997C52.5217 251.527 53.2399 251.826 53.9897 251.829Z" fill="#0077C7"/>
<path d="M217.35 320.588C217.69 317.118 220.08 313.668 224.28 313.668C228.48 313.668 230.86 317.118 231.2 320.588C231.73 325.938 228.12 330.778 224.28 335.198C220.42 330.758 216.82 325.918 217.35 320.588ZM224.28 324.428C225.029 324.426 225.761 324.202 226.383 323.784C227.005 323.367 227.489 322.774 227.774 322.081C228.06 321.389 228.133 320.627 227.986 319.892C227.839 319.158 227.477 318.484 226.946 317.955C226.416 317.425 225.741 317.066 225.006 316.92C224.271 316.775 223.509 316.85 222.817 317.137C222.125 317.425 221.534 317.91 221.118 318.533C220.702 319.156 220.48 319.889 220.48 320.638C220.485 321.641 220.888 322.602 221.601 323.309C222.313 324.015 223.277 324.411 224.28 324.408V324.428Z" fill="#0077C7"/>
<path d="M77.4711 117.349C77.8111 113.889 80.2011 110.439 84.4011 110.439C88.6011 110.439 90.9811 113.889 91.3211 117.349C91.8511 122.699 88.2411 127.549 84.4011 131.969C80.5411 127.589 76.9211 122.699 77.4711 117.349ZM84.4011 121.199C85.1531 121.199 85.8882 120.976 86.5133 120.558C87.1384 120.14 87.6255 119.546 87.9128 118.851C88.2001 118.156 88.2748 117.392 88.1273 116.654C87.9799 115.917 87.617 115.24 87.0845 114.709C86.5521 114.178 85.8741 113.817 85.1363 113.671C84.3985 113.526 83.6341 113.602 82.9399 113.892C82.2458 114.181 81.653 114.669 81.2366 115.296C80.8203 115.922 80.5991 116.657 80.6011 117.409C80.6011 117.908 80.6995 118.402 80.8905 118.862C81.0816 119.323 81.3617 119.741 81.7147 120.093C82.0677 120.445 82.4867 120.724 82.9476 120.914C83.4086 121.104 83.9026 121.201 84.4011 121.199Z" fill="#0077C7"/>
<path d="M175.989 260.498C176.249 257.908 177.989 255.328 181.159 255.328C184.329 255.328 186.079 257.908 186.329 260.498C186.729 264.498 184.039 268.108 181.159 271.408C178.289 268.108 175.589 264.488 175.989 260.498ZM181.159 263.368C181.722 263.37 182.272 263.205 182.741 262.894C183.21 262.582 183.575 262.139 183.791 261.62C184.008 261.1 184.065 260.528 183.955 259.977C183.846 259.425 183.575 258.918 183.178 258.52C182.78 258.122 182.273 257.852 181.721 257.742C181.169 257.633 180.597 257.69 180.078 257.906C179.559 258.122 179.115 258.488 178.804 258.957C178.493 259.425 178.328 259.976 178.329 260.538C178.332 261.288 178.631 262.006 179.161 262.536C179.691 263.067 180.41 263.365 181.159 263.368Z" fill="#0077C7"/>
<path d="M282.999 209.68C283.259 207.09 284.999 204.52 288.169 204.52C291.339 204.52 293.079 207.09 293.339 209.68C293.739 213.68 291.039 217.29 288.169 220.59C285.299 217.29 282.599 213.67 282.999 209.68ZM288.169 212.59C288.729 212.588 289.275 212.42 289.739 212.108C290.203 211.796 290.564 211.353 290.777 210.836C290.989 210.318 291.044 209.75 290.934 209.201C290.823 208.653 290.553 208.15 290.157 207.755C289.761 207.36 289.257 207.092 288.708 206.983C288.159 206.875 287.591 206.931 287.074 207.146C286.558 207.36 286.116 207.723 285.806 208.188C285.495 208.653 285.329 209.2 285.329 209.76C285.328 210.132 285.401 210.502 285.543 210.846C285.685 211.191 285.895 211.504 286.159 211.767C286.423 212.03 286.737 212.239 287.082 212.38C287.427 212.521 287.797 212.592 288.169 212.59Z" fill="#0077C7"/>
<path d="M342.13 119.728C342.39 117.138 344.13 114.568 347.3 114.568C350.47 114.568 352.21 117.138 352.47 119.728C352.87 123.728 350.17 127.338 347.3 130.638C344.43 127.338 341.73 123.718 342.13 119.728ZM347.3 122.588C347.86 122.588 348.407 122.422 348.872 122.111C349.338 121.8 349.701 121.358 349.915 120.841C350.129 120.324 350.185 119.755 350.076 119.206C349.967 118.657 349.697 118.153 349.301 117.757C348.906 117.361 348.401 117.092 347.852 116.983C347.303 116.874 346.734 116.93 346.217 117.144C345.7 117.358 345.258 117.721 344.947 118.186C344.636 118.651 344.47 119.199 344.47 119.758C344.47 120.13 344.543 120.498 344.686 120.841C344.828 121.185 345.036 121.497 345.299 121.759C345.562 122.022 345.874 122.231 346.217 122.373C346.561 122.515 346.929 122.588 347.3 122.588Z" fill="#0077C7"/>
<path d="M271.741 72.7987C272.081 69.3387 274.471 65.8887 278.671 65.8887C282.871 65.8887 285.251 69.3387 285.591 72.7987C286.121 78.1487 282.511 82.9887 278.671 87.4087C274.821 82.9887 271.211 78.1487 271.741 72.7987ZM278.671 76.6487C279.422 76.6487 280.157 76.4258 280.782 76.0083C281.407 75.5907 281.894 74.9972 282.181 74.3029C282.469 73.6085 282.544 72.8445 282.398 72.1073C282.251 71.3702 281.889 70.6931 281.358 70.1617C280.826 69.6302 280.149 69.2683 279.412 69.1217C278.675 68.9751 277.911 69.0503 277.216 69.3379C276.522 69.6255 275.929 70.1126 275.511 70.7375C275.093 71.3624 274.871 72.0971 274.871 72.8487C274.871 73.3477 274.969 73.8418 275.16 74.3029C275.351 74.7639 275.631 75.1828 275.984 75.5357C276.336 75.8885 276.755 76.1684 277.216 76.3594C277.677 76.5504 278.172 76.6487 278.671 76.6487Z" fill="#0077C7"/>
<path d="M87.6094 104.587L-0.000640869 104.447C-0.000640869 104.447 4.36937 98.7873 9.16937 98.0773C9.16937 98.0773 18.5494 70.2873 34.1694 70.0773C48.7094 69.9173 54.5094 87.2073 54.5094 87.2073C54.5094 87.2073 61.2594 79.4673 67.6894 83.0173C74.1194 86.5673 77.6894 96.7273 77.6894 96.7273C77.6894 96.7273 84.9894 100.587 87.6094 104.587Z" fill="#EBEBEB"/>
<path d="M309.05 200.278L419.84 200.448C419.84 200.448 419.84 193.368 404.59 191.958C404.59 191.958 390.7 160.958 369.42 165.128C356.16 167.698 349.36 185.878 349.36 185.878C349.36 185.878 339.36 171.548 331.36 174.308C323.36 177.068 318.57 192.308 318.57 192.308C318.57 192.308 310.31 196.278 309.05 200.278Z" fill="#EBEBEB"/>
<path d="M76.3194 397.327L187.109 397.497C187.109 397.497 187.109 390.417 171.859 389.007C171.859 389.007 157.969 358.007 136.689 362.167C123.429 364.737 116.629 382.917 116.629 382.917C116.629 382.917 106.629 368.587 98.6294 371.347C90.6294 374.107 85.8394 389.347 85.8394 389.347C85.8394 389.347 77.5794 393.327 76.3194 397.327Z" fill="#EBEBEB"/>
<path d="M77.92 27.8578L153.25 27.9678C153.25 27.9678 146.15 21.3378 142.99 21.3378C139.83 21.3378 130.65 -0.892212 118.86 0.027788C107.07 0.947788 100.81 17.4878 100.81 17.4878C100.81 17.4878 86.49 12.9778 77.92 27.8578Z" fill="#EBEBEB"/>
<path d="M314.84 368.457L390.18 368.587C390.18 368.587 383.08 361.967 379.92 361.957C376.76 361.947 367.57 339.727 355.79 340.657C344.01 341.587 337.72 358.117 337.72 358.117C337.72 358.117 323.41 353.587 314.84 368.457Z" fill="#EBEBEB"/>
<path d="M326.32 49.9481L390.74 50.0481C390.74 50.0481 387.54 45.8681 384.01 45.3381C384.01 45.3381 377.18 24.8881 365.68 24.7181C354.99 24.5681 350.68 37.2681 350.68 37.2681C350.68 37.2681 345.74 31.5681 341 34.1681C336.26 36.7681 333.58 44.1681 333.58 44.1681C333.58 44.1681 328.25 47.0781 326.32 49.9481Z" fill="#EBEBEB"/>
<path d="M4.66983 333.448L69.0898 333.548C69.0898 333.548 65.8898 329.368 62.3598 328.848C62.3598 328.848 55.5298 308.388 44.0298 308.228C33.3398 308.068 29.0298 320.778 29.0298 320.778C29.0298 320.778 24.0898 315.068 19.3498 317.668C14.6098 320.268 11.9198 327.728 11.9198 327.728C11.9198 327.728 6.59983 330.588 4.66983 333.448Z" fill="#EBEBEB"/>
<path d="M30.8598 200.587C30.7996 238.414 42.7774 275.28 65.0598 305.847C83.0685 330.636 107.136 350.389 134.961 363.217C162.786 376.045 193.438 381.519 223.983 379.115C254.528 376.712 283.945 366.51 309.421 349.488C334.897 332.465 355.579 309.19 369.488 281.89C383.398 254.589 390.07 224.176 388.866 193.56C387.662 162.944 378.622 133.15 362.611 107.026C346.601 80.902 324.155 59.3233 297.421 44.3538C270.687 29.3844 240.559 21.5249 209.92 21.5273C205.006 21.5273 200.143 21.724 195.33 22.1173C167.589 24.3333 140.756 33.0298 116.99 47.5073C90.6879 63.47 68.9444 85.9426 53.8576 112.757C38.7708 139.571 30.8501 169.82 30.8598 200.587Z" fill="#0795F6"/>
<g opacity="0.2">
<path d="M171.249 285.097C173.509 291.097 169.749 291.367 169.499 293.877C169.249 296.387 169.499 301.147 176.769 308.427C184.039 315.707 196.079 314.187 198.589 317.197C201.099 320.207 205.359 332.997 211.379 337.267C217.399 341.537 218.379 339.017 226.929 340.777C235.479 342.537 241.919 353.587 244.479 358.827C247.039 364.067 243.979 372.877 249.999 373.127C256.019 373.377 258.779 360.337 264.289 353.317C269.799 346.297 271.569 340.017 273.289 331.747C275.009 323.477 272.289 306.167 273.289 299.397C274.289 292.627 292.379 280.587 298.919 272.307C305.459 264.027 314.449 247.487 313.919 241.967C313.159 236.614 310.488 231.716 306.399 228.177C303.399 225.917 304.639 224.667 304.139 222.657C303.639 220.647 301.139 220.147 300.629 217.657C300.119 215.167 302.129 207.657 304.629 206.377C307.129 205.097 308.889 209.377 310.399 208.627C311.909 207.877 316.399 202.627 318.169 202.107C319.939 201.587 319.429 205.367 321.929 200.607C324.429 195.847 325.699 183.807 327.699 181.797C329.699 179.787 331.209 185.307 335.979 181.797C340.749 178.287 342.749 171.517 344.759 170.517C346.769 169.517 349.519 170.767 351.579 166.747C353.639 162.727 349.769 155.467 351.579 156.217C353.389 156.967 357.289 162.737 358.299 157.217C359.309 151.697 353.299 133.147 354.299 123.117C355.299 113.087 351.799 102.547 344.779 94.0275C344.779 94.0275 343.779 88.5075 342.779 85.0275C341.779 81.5475 320.209 67.4775 317.699 63.4575C316.699 61.7875 316.309 59.1574 315.929 56.3274C285.227 33.6825 248.069 21.4848 209.919 21.5275C205.006 21.5275 200.143 21.7241 195.329 22.1175L194.829 22.7874C192.659 25.5374 190.309 27.2975 183.959 29.6375C177.609 31.9775 176.099 34.9875 177.439 37.4975C178.779 40.0075 180.949 40.4974 183.439 40.6774C185.929 40.8574 188.289 39.4974 190.959 41.1774C193.629 42.8574 196.309 51.8775 199.819 52.3775C203.329 52.8775 209.519 44.3775 210.819 41.8475C212.119 39.3175 207.819 33.9875 209.819 31.4775C211.819 28.9675 215.459 29.4775 221.149 28.9675C226.839 28.4574 240.029 30.6475 239.529 32.8175C239.029 34.9875 220.139 32.4775 219.639 36.8175C219.139 41.1575 233.509 48.5175 236.019 47.8175C238.529 47.1175 241.869 42.8175 245.549 42.3075C249.229 41.7975 252.239 44.8074 254.549 45.1474C256.859 45.4874 259.549 42.6375 263.109 43.3075C266.669 43.9775 267.449 46.9875 269.299 48.1575C271.149 49.3275 275.479 49.3275 275.979 51.9975C276.479 54.6675 270.459 56.1875 268.979 57.8574C267.499 59.5274 270.819 65.2075 269.319 66.3775C267.819 67.5475 258.449 59.3775 256.099 57.3775C253.749 55.3775 251.759 46.6875 246.739 46.8475C241.719 47.0075 240.049 55.5375 238.379 56.3775C236.709 57.2175 233.029 54.3774 227.519 55.5374C222.009 56.6974 218.159 68.7474 217.149 72.4274C216.139 76.1074 213.809 79.7874 215.809 81.2874C217.809 82.7874 226.809 80.2875 228.019 77.9475C229.229 75.6075 222.019 72.0875 222.499 71.2575C222.979 70.4274 227.179 69.2575 229.359 70.5575C231.539 71.8575 232.529 74.5575 234.869 75.2675C237.209 75.9775 243.399 68.9174 245.069 70.9274C246.739 72.9374 243.399 79.2874 241.729 80.7874C240.059 82.2874 233.869 83.1274 233.369 84.7874C232.869 86.4474 237.549 90.1375 243.229 89.7875C248.909 89.4375 253.599 85.1075 255.769 86.9475C257.939 88.7875 256.769 93.6275 258.279 95.3075C259.789 96.9875 267.979 95.8074 271.989 100.147C275.999 104.487 277.919 111.057 281.919 114.737C285.919 118.417 287.769 113.737 293.119 118.917C298.469 124.097 299.309 135.637 299.479 139.647C299.649 143.657 299.479 146.837 300.809 146.337C302.139 145.837 303.989 142.337 304.489 140.147C304.989 137.957 303.319 134.297 303.319 132.957C303.319 131.617 311.009 124.767 315.529 124.097C320.049 123.427 324.059 127.097 327.399 129.777C330.739 132.457 336.759 131.957 338.929 134.127C341.099 136.297 342.779 155.527 341.109 160.047C339.439 164.567 337.259 164.557 331.909 162.217C326.559 159.877 329.569 155.357 326.389 156.367C323.209 157.377 321.549 160.717 321.549 163.367C321.549 166.017 327.899 172.367 327.059 174.237C326.219 176.107 320.709 173.897 318.059 174.737C315.409 175.577 314.059 177.247 314.879 184.097C315.699 190.947 315.209 196.307 311.199 198.557C307.189 200.807 304.929 195.297 303.199 196.057C301.469 196.817 298.929 200.817 296.419 200.567C293.909 200.317 295.169 198.057 290.419 196.567C285.669 195.077 287.419 194.057 286.419 191.047C285.419 188.037 282.419 185.527 279.149 187.047C275.879 188.567 278.149 190.807 277.899 193.317C277.649 195.827 271.899 196.077 267.359 197.577C262.819 199.077 260.359 197.577 251.359 200.577C242.359 203.577 241.829 212.577 238.069 214.117C234.309 215.657 221.769 213.117 212.739 219.637C203.709 226.157 206.219 238.197 201.739 241.707C197.259 245.217 180.419 249.977 173.899 251.237C167.379 252.497 166.379 247.977 161.109 249.237C155.839 250.497 152.839 251.997 151.109 259.237C149.399 265.667 168.999 279.077 171.249 285.097Z" fill="black"/>
<path d="M306.009 156.868C305.839 158.288 301.659 158.868 296.649 161.718C291.639 164.568 289.789 172.918 287.119 172.718C284.449 172.518 285.279 168.718 284.269 167.718C283.259 166.718 281.599 164.538 284.269 162.368C286.939 160.198 289.549 155.508 294.439 154.838C299.329 154.168 300.159 152.168 302.329 152.338C302.887 152.342 303.437 152.469 303.94 152.711C304.443 152.952 304.886 153.302 305.238 153.735C305.59 154.168 305.841 154.673 305.975 155.215C306.108 155.757 306.12 156.322 306.009 156.868Z" fill="black"/>
<path d="M278.419 170.907C279.169 172.957 278.419 174.427 273.069 175.757C267.719 177.087 262.709 174.427 264.379 173.337C266.049 172.247 268.559 172.747 267.549 170.907C266.539 169.067 266.889 166.397 271.239 166.907C275.589 167.417 277.749 169.077 278.419 170.907Z" fill="black"/>
<path d="M259.7 171.477C261.52 171.747 262.54 174.927 260.7 176.927C258.86 178.927 258.86 178.597 256.7 176.927C254.54 175.257 251.18 174.427 252.02 172.757C252.86 171.087 257.86 171.217 259.7 171.477Z" fill="black"/>
<path d="M245.149 178.318C244.329 175.808 240.149 178.318 238.299 180.948C236.449 183.578 237.299 187.468 238.299 190.308C239.299 193.148 239.969 196.488 242.299 195.158C244.629 193.828 242.129 189.808 242.469 187.468C242.809 185.128 245.819 180.368 245.149 178.318Z" fill="black"/>
<path d="M173.09 38.8372C173.97 40.9372 169.92 41.6772 167.58 43.0172C165.24 44.3572 163.4 45.1872 162.06 43.0172C160.72 40.8472 162.56 38.3272 164.4 37.8272C166.24 37.3272 172.26 36.8272 173.09 38.8372Z" fill="black"/>
<path d="M141.5 58.3968C139.95 60.0168 137.32 59.7268 135.5 62.0768C133.68 64.4268 134.33 68.4268 131.99 69.5968C129.65 70.7668 127.99 69.5968 127.81 67.9268C127.63 66.2568 131.15 62.0768 130.81 61.2368C130.47 60.3968 125.96 62.4068 124.95 64.9168C123.94 67.4268 125.95 70.9168 123.62 71.5968C121.29 72.2768 121.78 69.2568 120.77 68.5968C119.76 67.9368 117.6 68.2568 117.77 66.2468C117.94 64.2368 120.62 59.8968 122.77 58.3968C124.92 56.8968 126.62 55.2168 130.29 54.3968C133.96 53.5768 137.48 54.2368 139.29 55.7368C141.1 57.2368 142.45 57.3868 141.5 58.3968Z" fill="black"/>
<path d="M69.159 89.9073C69.2623 90.5841 69.594 91.2051 70.099 91.6673C73.619 94.1673 77.799 85.4773 82.639 83.8073C87.479 82.1373 89.639 75.9473 90.639 77.2873C91.639 78.6273 91.309 80.4673 92.809 82.6373C94.309 84.8073 96.489 84.3073 97.489 88.4873C98.489 92.6673 92.809 100.357 94.149 102.867C95.489 105.377 97.149 104.537 99.839 104.377C102.529 104.217 102.009 106.547 105.509 105.537C109.009 104.527 106.019 100.187 111.509 95.0073C116.999 89.8273 118.869 88.8273 117.689 86.4773C116.509 84.1273 118.189 80.7973 115.689 80.4773C113.189 80.1573 111.169 83.8173 109.499 84.8173C107.829 85.8173 105.659 82.8173 105.499 80.1373C105.339 77.4573 111.349 73.7873 113.499 71.7073C115.649 69.6273 115.919 62.0673 115.079 60.5873C114.239 59.1073 111.729 59.5873 111.079 55.9073C110.689 53.7473 114.079 50.1373 116.999 47.5273C98.6505 58.6853 82.4482 73.0384 69.159 89.9073Z" fill="black"/>
<path d="M44.1882 239.798C43.6882 234.448 46.3682 234.108 43.6882 224.248C41.0082 214.388 46.5283 203.848 48.5383 201.678C50.5483 199.508 54.8883 200.168 58.3983 202.348C61.9083 204.528 59.3982 206.188 61.7482 207.028C64.0982 207.868 66.4283 206.518 68.5983 206.688C70.7682 206.858 72.7783 212.378 77.4583 212.208C82.1383 212.038 85.1483 205.348 88.6583 200.588C92.1683 195.828 99.3683 192.818 101.658 186.958C103.948 181.098 99.4883 172.088 100.488 165.228C101.488 158.368 106.008 159.878 106.848 156.038C107.688 152.198 106.178 154.038 105.008 150.348C103.838 146.658 106.348 144.668 104.008 138.348C101.668 132.028 97.4882 128.818 98.4982 125.978C99.5082 123.138 102.678 118.458 102.848 115.118C103.018 111.778 99.6683 111.938 93.3183 107.248C86.9683 102.558 85.3182 102.908 80.4382 104.578C76.9577 105.863 73.3795 106.866 69.7383 107.578C66.8983 108.078 63.0482 115.438 61.8783 115.098C60.7083 114.758 60.5383 112.598 60.0383 109.418C59.7191 108.037 58.9948 106.784 57.9583 105.818C39.0888 136.08 29.6814 171.286 30.941 206.927C32.2005 242.569 44.0695 277.023 65.0282 305.878C48.0082 279.818 44.6982 245.138 44.1882 239.798Z" fill="black"/>
</g>
<path opacity="0.1" d="M71.1989 313.807C90.3008 337.217 115.016 355.414 143.042 366.701C171.069 377.989 201.497 382.002 231.491 378.366C261.486 374.73 290.074 363.563 314.591 345.906C339.109 328.248 358.761 304.674 371.716 277.378C384.671 250.081 390.509 219.951 388.685 189.791C386.862 159.632 377.437 130.424 361.288 104.888C345.139 79.3509 322.791 58.3156 296.324 43.7403C269.858 29.165 240.133 21.5235 209.919 21.5273C205.006 21.5273 200.139 21.724 195.319 22.1173C193.989 22.2173 192.659 22.3373 191.319 22.4873C216.631 25.2358 240.956 33.8371 262.369 47.6106C283.783 61.384 301.697 79.9518 314.695 101.845C327.692 123.738 335.417 148.355 337.257 173.749C339.098 199.143 335.003 224.617 325.297 248.155C315.592 271.693 300.542 292.65 281.338 309.367C262.134 326.084 239.303 338.102 214.652 344.472C190.001 350.841 164.206 351.386 139.308 346.064C114.41 340.741 91.0918 329.698 71.1989 313.807Z" fill="black"/>
<path opacity="0.3" d="M30.8598 200.587C30.7961 238.415 42.7743 275.281 65.0599 305.847C81.8552 328.941 103.906 347.704 129.39 360.587C107.204 347.885 87.9593 330.63 72.9198 309.957C51.8374 280.936 39.8983 246.282 38.6316 210.433C37.3649 174.585 46.8284 139.174 65.8099 108.737C69.2578 103.2 73.0103 97.8588 77.0499 92.7373C90.3995 75.7659 106.68 61.3214 125.12 50.0873C149.03 35.5401 176.02 26.8061 203.92 24.5873C208.75 24.1973 213.66 23.9973 218.59 23.9973C233.164 23.9878 247.686 25.7405 261.84 29.2173C245.005 24.1168 227.51 21.5256 209.92 21.5273C205.007 21.5273 200.14 21.724 195.32 22.1173C150.501 25.77 108.699 46.1577 78.2266 79.2259C47.7543 112.294 30.8444 155.62 30.8598 200.587Z" fill="white"/>
<path opacity="0.7" d="M173.588 158.927C145.122 156.342 117.031 150.611 89.8279 141.837C89.8279 141.837 93.9079 138.987 98.4279 139.837C98.4279 139.837 107.198 122.147 122.108 125.447C135.978 128.447 141.618 141.937 141.608 141.987C141.598 142.037 148.078 137.427 154.298 140.907C160.518 144.387 164.038 152.237 164.038 152.237C164.038 152.237 171.048 155.857 173.588 158.927Z" fill="#DBDBDB"/>
<path d="M293.2 185.517C328.903 177.544 363.296 164.548 395.35 146.917C395.35 146.847 395.41 141.867 381.81 147.787C381.81 147.717 369.45 131.507 349.81 142.267C337.6 148.917 331.23 164.267 331.24 164.267C331.25 164.267 321.88 156.837 314.31 160.987C306.74 165.137 302.22 177.447 302.22 177.457C302.22 177.467 294.4 182.327 293.2 185.517Z" fill="#EBEBEB"/>
<path d="M22.1195 167.867C54.1755 185.493 88.5673 198.489 124.27 206.467C124.27 206.397 124.27 201.467 109.75 196.697C109.75 196.627 96.4695 170.697 76.7495 166.647C64.4695 164.057 58.3295 174.647 58.3195 174.717C58.3095 174.787 49.1695 160.317 41.9795 158.887C34.7895 157.457 30.5695 166.447 30.5695 166.467C30.5695 166.487 23.2095 165.587 22.1195 167.867Z" fill="#EBEBEB"/>
<path d="M195.279 88.3175C219.729 89.1607 244.205 87.6909 268.379 83.9275C268.379 83.9275 261.519 80.0975 258.469 80.4775C255.419 80.8575 246.469 65.6575 235.049 67.1275C223.629 68.5975 217.519 80.7675 217.519 80.7975C217.519 80.8275 203.589 77.7275 195.279 88.3175Z" fill="#EBEBEB"/>
<path d="M230.159 368.588C254.642 367.223 278.94 363.539 302.729 357.588C302.729 357.588 295.969 354.378 292.939 355.028C289.909 355.678 281.119 341.288 269.759 343.788C258.399 346.288 252.339 359.008 252.339 359.038C252.339 359.068 238.469 357.238 230.159 368.588Z" fill="#EBEBEB"/>
<path opacity="0.7" d="M303.699 274.278C324.228 269.091 344.296 262.224 363.699 253.748C361.838 252.685 359.638 252.384 357.559 252.908C357.559 252.908 351.299 240.558 340.629 244.338C330.699 247.798 326.629 258.338 326.629 258.338C325.214 257.574 323.615 257.217 322.009 257.305C320.403 257.393 318.852 257.924 317.529 258.838C313.069 262.068 310.529 268.228 310.529 268.228C310.529 268.228 305.539 271.718 303.699 274.278Z" fill="#DBDBDB"/>
<path opacity="0.7" d="M158.92 342.447C130.514 338.768 102.603 331.949 75.6999 322.117C75.6999 322.117 79.6999 319.427 84.2199 320.417C84.2199 320.417 92.8999 303.067 107.7 306.947C121.48 310.467 127.09 324.187 127.08 324.237C127.07 324.287 133.51 319.927 139.7 323.647C145.89 327.367 149.4 335.347 149.4 335.347C149.4 335.347 156.41 339.267 158.92 342.447Z" fill="#DBDBDB"/>
<path d="M301.23 296.748C302.53 295.248 320.64 282.598 322 281.648L318.91 281.118C318.91 281.118 302.35 295.188 301.23 296.748Z" fill="#0077C7"/>
<g opacity="0.1">
<path d="M301.17 296.858C301.17 296.858 301.17 296.858 301.17 296.918C301.31 297.238 302.55 297.518 303.94 297.708H303.99C305.271 297.945 306.581 297.972 307.87 297.788C308.27 297.518 321.68 290.788 329.65 286.788C328.34 287.428 311.14 295.698 307.65 291.788C305.419 293.321 303.269 294.97 301.21 296.728C301.21 296.728 301.21 296.778 301.21 296.798L301.17 296.858Z" fill="black"/>
</g>
<path d="M123.999 311.618C123.999 313.418 133.909 313.998 135.259 313.618C136.609 313.238 244.609 270.738 244.609 270.738L204.919 255.028L203.769 255.818L203.269 256.168C195.949 261.228 174.099 276.378 155.019 289.708L153.889 290.498L152.389 291.498C139.159 300.798 127.689 308.868 123.999 311.618Z" fill="#0077C7"/>
<path d="M124 311.618C133.66 304.408 196.67 260.748 204.92 255.038L199.92 253.038C199.92 253.038 126.52 308.868 124.3 311.088C124.136 311.22 124.028 311.41 124 311.618Z" fill="#0077C7"/>
<path d="M213.95 284.678C217.02 286.168 220.35 287.328 220.6 284.248C220.69 282.988 219.71 281.638 214.78 279.248C213.63 278.688 210.78 277.448 209.97 280.008C209.16 282.568 212.8 284.108 213.95 284.678Z" fill="#0077C7"/>
<path opacity="0.1" d="M213.95 284.678C217.02 286.168 220.35 287.328 220.6 284.248C220.69 282.988 219.71 281.638 214.78 279.248C213.63 278.688 210.78 277.448 209.97 280.008C209.16 282.568 212.8 284.108 213.95 284.678Z" fill="black"/>
<path d="M188.919 294.918C191.989 296.408 195.329 297.578 195.569 294.498C195.669 293.228 194.689 291.878 189.749 289.498C188.599 288.938 185.749 287.708 184.939 290.268C184.129 292.828 187.769 294.358 188.919 294.918Z" fill="#0077C7"/>
<path opacity="0.1" d="M188.919 294.918C191.989 296.408 195.329 297.578 195.569 294.498C195.669 293.228 194.689 291.878 189.749 289.498C188.599 288.938 185.749 287.708 184.939 290.268C184.129 292.828 187.769 294.358 188.919 294.918Z" fill="black"/>
<path d="M163.9 305.158C166.96 306.648 170.3 307.818 170.54 304.738C170.64 303.478 169.66 302.128 164.73 299.738C163.57 299.188 160.73 297.948 159.91 300.508C159.09 303.068 162.74 304.598 163.9 305.158Z" fill="#0077C7"/>
<path opacity="0.1" d="M163.9 305.158C166.96 306.648 170.3 307.818 170.54 304.738C170.64 303.478 169.66 302.128 164.73 299.738C163.57 299.188 160.73 297.948 159.91 300.508C159.09 303.068 162.74 304.598 163.9 305.158Z" fill="black"/>
<path d="M171.94 270.758C171.94 276.628 175.61 281.388 180.14 281.388C184.67 281.388 188.34 276.628 188.34 270.758C188.34 264.888 184.67 260.128 180.14 260.128C175.61 260.128 171.94 264.888 171.94 270.758Z" fill="#263238"/>
<path d="M172.901 270.758C172.901 275.948 176.141 280.148 180.141 280.148C184.141 280.148 187.391 275.948 187.391 270.758C187.391 265.568 184.141 261.358 180.141 261.358C176.141 261.358 172.901 265.568 172.901 270.758Z" fill="#0076C7"/>
<path d="M343.8 267.938L345.7 268.638L349.98 270.188L364.78 263.798C379.1 257.648 396.1 250.408 399.35 249.288L398.94 249.408L398.56 249.528L398.06 249.688L397.78 249.788L396.65 250.148L395.49 250.528L392.24 251.598L391.12 251.968L390.12 252.318L389.55 252.508L387.78 253.098L386.61 253.488L371.38 258.608L369.94 259.098L364.27 261.008L354.49 264.318L353.11 264.788C351.53 265.318 350.11 265.788 348.85 266.228L347.76 266.598L347.26 266.768L347 266.848C344.96 267.558 343.8 267.938 343.8 267.938Z" fill="#0077C7"/>
<path d="M349.98 270.188L361.44 274.368C361.44 274.368 387.04 262.488 402.31 255.038L402.47 254.968L402.68 254.868L407.1 252.708C411.05 250.708 413.55 249.388 413.45 249.208C413.03 248.358 403.53 248.148 399.73 249.208H399.62L399.38 249.288C396.22 250.358 380.27 257.138 366.26 263.158L365.94 263.288L364.81 263.778L349.98 270.188Z" fill="#0077C7"/>
<g opacity="0.1">
<path d="M320.491 253.848L348.301 267.228C348.301 267.228 348.021 243.378 347.801 226.228C343.711 235.368 335.621 247.848 322.651 245.588C321.361 250.428 320.491 253.848 320.491 253.848Z" fill="black"/>
</g>
<path d="M367.729 281.808C370.589 274.648 358.439 268.148 344.639 261.958C330.839 255.768 194.819 195.778 175.099 190.428C155.379 185.078 132.419 192.428 128.539 203.658C122.719 220.558 147.249 234.718 235.359 271.248C246.909 276.038 298.549 288.438 327.589 288.528C358.649 288.628 366.319 285.288 367.729 281.808Z" fill="#0077C7"/>
<path d="M324.609 258.208L321.489 256.848V261.448L324.609 262.798V258.208Z" fill="#0076C7"/>
<path d="M318.91 255.738L315.57 254.288V258.888L318.91 260.328V255.738Z" fill="#0076C7"/>
<path d="M313 253.178L309.66 251.728V256.328L313 257.768V253.178Z" fill="#0076C7"/>
<path d="M307.08 250.618L303.75 249.168V253.768L307.08 255.208V250.618Z" fill="#0076C7"/>
<path d="M301.17 248.058L297.83 246.608V251.208L301.17 252.648V248.058Z" fill="#0076C7"/>
<path d="M295.25 245.498L291.92 244.048V248.648L295.25 250.098V245.498Z" fill="#0076C7"/>
<path d="M289.34 242.938L286 241.488V246.088L289.34 247.538V242.938Z" fill="#0076C7"/>
<path d="M283.43 240.378L280.09 238.928V243.528L283.43 244.978V240.378Z" fill="#0076C7"/>
<path d="M277.51 237.818L274.18 236.368V240.968L277.51 242.418V237.818Z" fill="#0076C7"/>
<path d="M271.6 235.258L268.26 233.808V238.408L271.6 239.848V235.258Z" fill="#0076C7"/>
<path d="M265.68 232.698L262.35 231.248V235.848L265.68 237.288V232.698Z" fill="#0076C7"/>
<path d="M259.77 230.138L256.43 228.688V233.288L259.77 234.728V230.138Z" fill="#0076C7"/>
<path d="M253.859 227.578L250.519 226.138V230.728L253.859 232.168V227.578Z" fill="#0076C7"/>
<path d="M247.939 225.018L244.609 223.578V228.168L247.939 229.608V225.018Z" fill="#0076C7"/>
<path d="M242.029 222.458L238.689 221.018V225.608L242.029 227.048V222.458Z" fill="#0076C7"/>
<path d="M236.121 219.898L232.781 218.458V223.048L236.121 224.498V219.898Z" fill="#0076C7"/>
<path d="M230.199 217.338L226.859 215.898V220.488L230.199 221.938V217.338Z" fill="#0076C7"/>
<path d="M224.291 214.778L220.951 213.338V217.928L224.291 219.378V214.778Z" fill="#0076C7"/>
<path d="M218.371 212.218L215.041 210.778V215.368L218.371 216.818V212.218Z" fill="#0076C7"/>
<path d="M212.461 209.658L209.121 208.218V212.808L212.461 214.258V209.658Z" fill="#0076C7"/>
<path d="M206.551 207.098L203.211 205.658V210.248L206.551 211.698V207.098Z" fill="#0076C7"/>
<path d="M197.291 203.098V207.688L200.631 209.138V204.538L197.291 203.098Z" fill="#0076C7"/>
<path d="M191.381 200.538V205.128L194.721 206.578V201.978L191.381 200.538Z" fill="#0076C7"/>
<path d="M185.471 197.978V202.568L188.801 204.018V199.418L185.471 197.978Z" fill="#0076C7"/>
<path d="M179.551 195.418V200.008L182.891 201.458V196.858L179.551 195.418Z" fill="#0076C7"/>
<path d="M164.1 193.538C162.264 192.142 160.15 191.156 157.9 190.648V193.648C159.88 193.628 161.92 193.578 164.1 193.538Z" fill="#0076C7"/>
<path d="M150.631 189.918V194.138C152.191 193.998 153.741 193.908 155.311 193.828V190.138C153.761 189.915 152.194 189.841 150.631 189.918Z" fill="#0076C7"/>
<path d="M135.76 195.878C137.07 195.878 138.27 195.618 139.47 195.478C140.67 195.338 141.84 195.118 143.01 195.008C144.71 194.748 146.39 194.568 148.01 194.408V190.188C145.975 190.465 143.985 191.006 142.09 191.798C140.914 192.278 139.783 192.86 138.71 193.538C138.163 193.865 137.641 194.233 137.15 194.638C136.7 195.038 136.21 195.438 135.76 195.878Z" fill="#0076C7"/>
<path d="M236.311 230.738L247.951 236.338C277.731 223.858 401.601 174.888 411.951 170.778L412.271 170.648L412.531 170.568H412.621C412.162 170.613 411.707 170.693 411.261 170.808C408.181 171.628 236.311 230.738 236.311 230.738Z" fill="#0077C7"/>
<path d="M320.261 231.648C324.091 233.508 328.261 234.968 328.561 231.118C328.681 229.538 327.461 227.848 321.291 224.888C319.851 224.188 316.291 222.638 315.291 225.888C314.291 229.138 318.811 230.948 320.261 231.648Z" fill="#0077C7"/>
<path d="M353.431 214.888C357.261 216.748 361.431 218.208 361.731 214.358C361.851 212.778 360.631 211.098 354.461 208.128C353.021 207.428 349.461 205.888 348.461 209.128C347.461 212.368 351.981 214.188 353.431 214.888Z" fill="#0077C7"/>
<path opacity="0.1" d="M353.431 214.888C357.261 216.748 361.431 218.208 361.731 214.358C361.851 212.778 360.631 211.098 354.461 208.128C353.021 207.428 349.461 205.888 348.461 209.128C347.461 212.368 351.981 214.188 353.431 214.888Z" fill="black"/>
<path d="M386.7 197.928C390.27 199.668 394.16 201.028 394.44 197.438C394.55 195.968 393.44 194.438 387.67 191.638C386.32 190.988 383.03 189.548 382.07 192.528C381.11 195.508 385.36 197.288 386.7 197.928Z" fill="#0077C7"/>
<path opacity="0.1" d="M386.7 197.928C390.27 199.668 394.16 201.028 394.44 197.438C394.55 195.968 393.44 194.438 387.67 191.638C386.32 190.988 383.03 189.548 382.07 192.528C381.11 195.508 385.36 197.288 386.7 197.928Z" fill="black"/>
<path d="M270.77 227.848C273.77 233.218 280.63 235.148 284.96 236.848C296.47 241.448 304.81 244.038 308.96 233.578C309.452 232.371 309.763 231.097 309.88 229.798C310.56 221.918 302.39 217.978 298.25 215.798C293.25 213.168 289.71 211.458 287.07 210.348C282.77 208.538 280.85 208.348 278.88 208.238C276.55 208.158 271.3 208.748 269.57 218.388C268.822 221.584 269.248 224.941 270.77 227.848Z" fill="#0077C7"/>
<path d="M278.829 230.988C274.301 230.988 270.629 226.229 270.629 220.358C270.629 214.487 274.301 209.728 278.829 209.728C283.358 209.728 287.029 214.487 287.029 220.358C287.029 226.229 283.358 230.988 278.829 230.988Z" fill="#263238"/>
<path opacity="0.5" d="M301.23 296.749C302.53 295.249 320.64 282.599 322 281.649L318.91 281.119C318.91 281.119 302.35 295.189 301.23 296.749Z" fill="white"/>
<path d="M301.17 296.86C301.17 296.86 301.17 296.86 301.17 296.92C301.31 297.24 302.55 297.52 303.94 297.71H303.99C305.27 297.947 306.581 297.974 307.87 297.79C308.26 297.52 321.33 290.98 329.33 286.98L329.65 286.83H329.71L330.84 286.26L334.14 284.62L335.42 283.98L321.97 281.68C321.2 282.21 315.09 286.48 309.68 290.37L309.12 290.77C308.62 291.13 308.12 291.49 307.64 291.83C305.408 293.363 303.259 295.012 301.2 296.77C301.2 296.77 301.2 296.82 301.2 296.84L301.17 296.86Z" fill="#0077C7"/>
<path opacity="0.5" d="M124 311.619C133.66 304.409 196.67 260.749 204.92 255.039L199.92 253.039C199.92 253.039 126.52 308.869 124.3 311.089C124.136 311.221 124.028 311.41 124 311.619Z" fill="white"/>
<g opacity="0.5">
<path opacity="0.1" d="M123.999 311.619C123.999 313.419 133.909 313.999 135.259 313.619C136.609 313.239 244.609 270.739 244.609 270.739L204.919 255.029C204.919 255.029 214.729 266.249 191.439 283.519C175.569 295.289 158.669 297.729 152.439 291.519C139.159 300.799 127.689 308.869 123.999 311.619Z" fill="black"/>
</g>
<path d="M172.1 278.288C175.1 283.658 181.96 285.588 186.29 287.288C197.8 291.888 206.14 294.468 210.29 284.018C210.783 282.81 211.093 281.537 211.21 280.238C211.89 272.358 203.72 268.418 199.58 266.238C194.58 263.598 191.04 261.898 188.4 260.788C184.1 258.968 182.18 258.788 180.21 258.678C177.88 258.598 172.63 259.188 170.9 268.828C170.153 272.023 170.578 275.38 172.1 278.288Z" fill="#0077C7"/>
<path opacity="0.5" d="M343.802 267.939L345.702 268.639L349.982 270.189L364.782 263.799C379.102 257.649 396.102 250.409 399.352 249.289L398.942 249.409L398.562 249.529L398.062 249.689L397.782 249.789L396.652 250.149L395.492 250.529L392.242 251.599L391.122 251.969L390.122 252.319L389.552 252.509L387.782 253.099L386.612 253.489L371.382 258.609L369.942 259.099L364.272 261.009L354.492 264.319L353.112 264.789C351.532 265.319 350.112 265.789 348.852 266.229L347.762 266.599L347.262 266.769L347.002 266.849C344.962 267.559 343.802 267.939 343.802 267.939Z" fill="white"/>
<g opacity="0.1">
<path d="M349.981 270.189L361.441 274.369C361.441 274.369 387.041 262.489 402.311 255.039C399.781 256.119 373.871 267.529 367.491 265.939C366.897 265.834 366.339 265.583 365.866 265.21C365.394 264.836 365.021 264.352 364.781 263.799L349.981 270.189Z" fill="black"/>
</g>
<path d="M320.491 253.848L348.301 267.228C348.301 267.228 348.021 243.378 347.801 226.228C347.801 225.638 347.801 225.058 347.801 224.488C347.801 223.918 347.801 223.548 347.801 223.088C347.731 217.218 347.661 212.488 347.631 210.338C347.531 203.438 346.791 202.038 344.961 203.158C343.131 204.278 335.011 211.348 332.571 214.498C330.571 217.078 326.131 232.738 323.241 243.498C323.241 243.598 323.241 243.678 323.181 243.768C323.011 244.398 322.841 245.008 322.691 245.588C321.361 250.428 320.491 253.848 320.491 253.848Z" fill="#0077C7"/>
<path opacity="0.5" d="M367.731 281.808C370.591 274.648 358.441 268.148 344.641 261.958C330.841 255.768 194.821 195.778 175.101 190.428C155.381 185.078 132.421 192.428 128.541 203.658C122.721 220.558 147.251 234.718 235.361 271.248C246.911 276.038 298.551 288.438 327.591 288.528C358.651 288.628 366.321 285.288 367.731 281.808Z" fill="white"/>
<path opacity="0.1" d="M235.369 271.288C246.919 276.078 298.559 288.468 327.599 288.568C358.649 288.668 366.319 285.368 367.729 281.848C369.229 278.108 366.619 274.538 361.809 271.098C361.841 271.823 361.715 272.547 361.439 273.218C360.149 276.418 353.189 279.408 325.019 279.318C298.669 279.228 260.769 257.888 250.299 253.548C170.349 220.358 139.099 217.598 144.409 202.288C146.709 195.608 156.409 190.458 167.839 189.048C150.119 186.928 131.959 193.778 128.549 203.678C122.729 220.558 147.259 234.718 235.369 271.288Z" fill="black"/>
<path d="M242.03 233.29L281.23 252.15C281.23 252.15 343.53 218.75 388.23 194.35L388.33 194.29C412.19 181.29 430.41 171.13 430.11 170.74C429.36 169.74 417.36 169.85 412.61 170.5C412.151 170.544 411.696 170.624 411.25 170.74C409.25 171.29 338.74 197.4 289.38 215.74L242.03 233.29Z" fill="#0077C7"/>
<g opacity="0.1">
<path d="M242.03 233.29L281.23 252.15C281.23 252.15 343.53 218.75 388.23 194.35C384.73 196.11 304.58 236.5 294.11 230.44C290.16 228.15 289.11 222.24 289.4 215.71L242.03 233.29Z" fill="black"/>
</g>
<path opacity="0.5" d="M236.311 230.738L247.951 236.338C277.731 223.858 401.601 174.888 411.951 170.778L412.271 170.648L412.531 170.568H412.621C412.162 170.613 411.707 170.693 411.261 170.808C408.181 171.628 236.311 230.738 236.311 230.738Z" fill="white"/>
<path opacity="0.1" d="M320.261 231.649C324.091 233.509 328.261 234.969 328.561 231.119C328.681 229.539 327.461 227.849 321.291 224.889C319.851 224.189 316.291 222.639 315.291 225.889C314.291 229.139 318.811 230.949 320.261 231.649Z" fill="black"/>
<path d="M271.59 220.359C271.59 225.549 274.83 229.749 278.83 229.749C282.83 229.749 286.08 225.549 286.08 220.359C286.08 215.169 282.83 210.969 278.83 210.969C274.83 210.969 271.59 215.169 271.59 220.359Z" fill="#0076C7"/>
</svg>
